<mxfile host="app.diagrams.net" modified="2024-08-09T21:04:27.863Z" agent="Mozilla/5.0 (Windows NT 10.0; Win64; x64) AppleWebKit/537.36 (KHTML, like Gecko) Chrome/127.0.0.0 Safari/537.36" etag="kv3VBBbI3pbUNhls1j1t" version="24.3.1" type="github">
  <diagram name="Page-1" id="siRjshFDeKtAX4z_A-2V">
    <mxGraphModel dx="1048" dy="772" grid="1" gridSize="10" guides="1" tooltips="1" connect="1" arrows="1" fold="1" page="1" pageScale="1" pageWidth="850" pageHeight="1100" math="0" shadow="0">
      <root>
        <mxCell id="0" />
        <mxCell id="1" parent="0" />
        <mxCell id="9sCy_fKsVC_AK6v98bQz-1" style="edgeStyle=orthogonalEdgeStyle;rounded=0;orthogonalLoop=1;jettySize=auto;html=1;exitX=1;exitY=0.5;exitDx=0;exitDy=0;exitPerimeter=0;" edge="1" parent="1" source="9sCy_fKsVC_AK6v98bQz-3">
          <mxGeometry relative="1" as="geometry">
            <mxPoint x="240" y="250" as="targetPoint" />
          </mxGeometry>
        </mxCell>
        <mxCell id="9sCy_fKsVC_AK6v98bQz-2" value="RepVal_Input" style="edgeLabel;html=1;align=center;verticalAlign=middle;resizable=0;points=[];" vertex="1" connectable="0" parent="9sCy_fKsVC_AK6v98bQz-1">
          <mxGeometry x="-0.1632" y="1" relative="1" as="geometry">
            <mxPoint as="offset" />
          </mxGeometry>
        </mxCell>
        <mxCell id="9sCy_fKsVC_AK6v98bQz-3" value="EDW" style="shape=cylinder3;whiteSpace=wrap;html=1;boundedLbl=1;backgroundOutline=1;size=15;" vertex="1" parent="1">
          <mxGeometry x="3" y="200" width="80" height="100" as="geometry" />
        </mxCell>
        <mxCell id="9sCy_fKsVC_AK6v98bQz-4" value="JDE" style="shape=cylinder3;whiteSpace=wrap;html=1;boundedLbl=1;backgroundOutline=1;size=15;" vertex="1" parent="1">
          <mxGeometry x="13" y="50" width="60" height="80" as="geometry" />
        </mxCell>
        <mxCell id="9sCy_fKsVC_AK6v98bQz-5" value="" style="endArrow=classic;html=1;rounded=0;exitX=0.5;exitY=1;exitDx=0;exitDy=0;exitPerimeter=0;" edge="1" parent="1" source="9sCy_fKsVC_AK6v98bQz-4">
          <mxGeometry width="50" height="50" relative="1" as="geometry">
            <mxPoint x="400" y="420" as="sourcePoint" />
            <mxPoint x="42" y="220" as="targetPoint" />
          </mxGeometry>
        </mxCell>
        <mxCell id="9sCy_fKsVC_AK6v98bQz-6" value="PrepFlow" style="rounded=0;whiteSpace=wrap;html=1;" vertex="1" parent="1">
          <mxGeometry x="250" y="220" width="120" height="60" as="geometry" />
        </mxCell>
        <mxCell id="9sCy_fKsVC_AK6v98bQz-7" value="PREP" style="shape=cylinder3;whiteSpace=wrap;html=1;boundedLbl=1;backgroundOutline=1;size=15;" vertex="1" parent="1">
          <mxGeometry x="580" y="420" width="160" height="180" as="geometry" />
        </mxCell>
        <mxCell id="9sCy_fKsVC_AK6v98bQz-8" style="edgeStyle=orthogonalEdgeStyle;rounded=0;orthogonalLoop=1;jettySize=auto;html=1;exitX=0.5;exitY=1;exitDx=0;exitDy=0;entryX=0;entryY=0;entryDx=0;entryDy=127.5;entryPerimeter=0;" edge="1" parent="1" source="9sCy_fKsVC_AK6v98bQz-6" target="9sCy_fKsVC_AK6v98bQz-7">
          <mxGeometry relative="1" as="geometry">
            <mxPoint x="419" y="260" as="targetPoint" />
            <mxPoint x="262" y="260" as="sourcePoint" />
          </mxGeometry>
        </mxCell>
        <mxCell id="9sCy_fKsVC_AK6v98bQz-9" value="ImpossibleOutput" style="edgeLabel;html=1;align=center;verticalAlign=middle;resizable=0;points=[];" vertex="1" connectable="0" parent="9sCy_fKsVC_AK6v98bQz-8">
          <mxGeometry x="0.2738" y="2" relative="1" as="geometry">
            <mxPoint as="offset" />
          </mxGeometry>
        </mxCell>
        <mxCell id="9sCy_fKsVC_AK6v98bQz-10" style="edgeStyle=orthogonalEdgeStyle;rounded=0;orthogonalLoop=1;jettySize=auto;html=1;exitX=0.75;exitY=1;exitDx=0;exitDy=0;entryX=0;entryY=0;entryDx=0;entryDy=15;entryPerimeter=0;" edge="1" parent="1" source="9sCy_fKsVC_AK6v98bQz-6" target="9sCy_fKsVC_AK6v98bQz-7">
          <mxGeometry relative="1" as="geometry">
            <mxPoint x="83" y="400" as="targetPoint" />
            <mxPoint x="320" y="290" as="sourcePoint" />
          </mxGeometry>
        </mxCell>
        <mxCell id="9sCy_fKsVC_AK6v98bQz-11" value="Darft_InfeasibleOutput" style="edgeLabel;html=1;align=center;verticalAlign=middle;resizable=0;points=[];" vertex="1" connectable="0" parent="9sCy_fKsVC_AK6v98bQz-10">
          <mxGeometry x="0.2738" y="2" relative="1" as="geometry">
            <mxPoint as="offset" />
          </mxGeometry>
        </mxCell>
        <mxCell id="9sCy_fKsVC_AK6v98bQz-12" style="edgeStyle=orthogonalEdgeStyle;rounded=0;orthogonalLoop=1;jettySize=auto;html=1;exitX=0.867;exitY=1.017;exitDx=0;exitDy=0;exitPerimeter=0;entryX=0;entryY=0.5;entryDx=0;entryDy=0;entryPerimeter=0;" edge="1" parent="1" source="9sCy_fKsVC_AK6v98bQz-6" target="9sCy_fKsVC_AK6v98bQz-7">
          <mxGeometry relative="1" as="geometry">
            <mxPoint x="640" y="485" as="targetPoint" />
            <mxPoint x="425" y="420.02" as="sourcePoint" />
          </mxGeometry>
        </mxCell>
        <mxCell id="9sCy_fKsVC_AK6v98bQz-13" value="Draft_TrimmedOutput" style="edgeLabel;html=1;align=center;verticalAlign=middle;resizable=0;points=[];" vertex="1" connectable="0" parent="9sCy_fKsVC_AK6v98bQz-12">
          <mxGeometry x="0.2738" y="2" relative="1" as="geometry">
            <mxPoint as="offset" />
          </mxGeometry>
        </mxCell>
        <mxCell id="9sCy_fKsVC_AK6v98bQz-14" style="edgeStyle=orthogonalEdgeStyle;rounded=0;orthogonalLoop=1;jettySize=auto;html=1;exitX=0.25;exitY=1;exitDx=0;exitDy=0;entryX=0;entryY=0;entryDx=0;entryDy=42.5;entryPerimeter=0;" edge="1" parent="1" source="9sCy_fKsVC_AK6v98bQz-6" target="9sCy_fKsVC_AK6v98bQz-7">
          <mxGeometry relative="1" as="geometry">
            <mxPoint x="83" y="388" as="targetPoint" />
            <mxPoint x="320" y="290" as="sourcePoint" />
          </mxGeometry>
        </mxCell>
        <mxCell id="9sCy_fKsVC_AK6v98bQz-15" value="MissingInfeasibleInput" style="edgeLabel;html=1;align=center;verticalAlign=middle;resizable=0;points=[];" vertex="1" connectable="0" parent="9sCy_fKsVC_AK6v98bQz-14">
          <mxGeometry x="0.2738" y="2" relative="1" as="geometry">
            <mxPoint as="offset" />
          </mxGeometry>
        </mxCell>
        <mxCell id="9sCy_fKsVC_AK6v98bQz-16" style="edgeStyle=orthogonalEdgeStyle;rounded=0;orthogonalLoop=1;jettySize=auto;html=1;exitX=1;exitY=0.5;exitDx=0;exitDy=0;entryX=0;entryY=1;entryDx=0;entryDy=-15;entryPerimeter=0;" edge="1" parent="1" source="9sCy_fKsVC_AK6v98bQz-6" target="9sCy_fKsVC_AK6v98bQz-7">
          <mxGeometry relative="1" as="geometry">
            <mxPoint x="83" y="425" as="targetPoint" />
            <mxPoint x="364" y="291" as="sourcePoint" />
          </mxGeometry>
        </mxCell>
        <mxCell id="9sCy_fKsVC_AK6v98bQz-17" value="Draft_ValidOutputDetail" style="edgeLabel;html=1;align=center;verticalAlign=middle;resizable=0;points=[];" vertex="1" connectable="0" parent="9sCy_fKsVC_AK6v98bQz-16">
          <mxGeometry x="0.2738" y="2" relative="1" as="geometry">
            <mxPoint as="offset" />
          </mxGeometry>
        </mxCell>
        <mxCell id="9sCy_fKsVC_AK6v98bQz-18" style="edgeStyle=orthogonalEdgeStyle;rounded=0;orthogonalLoop=1;jettySize=auto;html=1;exitX=1;exitY=0.75;exitDx=0;exitDy=0;entryX=0.145;entryY=0;entryDx=0;entryDy=4.35;entryPerimeter=0;" edge="1" parent="1" source="9sCy_fKsVC_AK6v98bQz-6" target="9sCy_fKsVC_AK6v98bQz-7">
          <mxGeometry relative="1" as="geometry">
            <mxPoint x="126" y="545" as="targetPoint" />
            <mxPoint x="474" y="350" as="sourcePoint" />
          </mxGeometry>
        </mxCell>
        <mxCell id="9sCy_fKsVC_AK6v98bQz-19" value="Draft_ValidOutputDetail" style="edgeLabel;html=1;align=center;verticalAlign=middle;resizable=0;points=[];" vertex="1" connectable="0" parent="9sCy_fKsVC_AK6v98bQz-18">
          <mxGeometry x="0.2738" y="2" relative="1" as="geometry">
            <mxPoint as="offset" />
          </mxGeometry>
        </mxCell>
        <mxCell id="9sCy_fKsVC_AK6v98bQz-20" style="edgeStyle=orthogonalEdgeStyle;rounded=0;orthogonalLoop=1;jettySize=auto;html=1;exitX=1;exitY=0.25;exitDx=0;exitDy=0;entryX=0.5;entryY=0;entryDx=0;entryDy=0;entryPerimeter=0;" edge="1" parent="1" source="9sCy_fKsVC_AK6v98bQz-6" target="9sCy_fKsVC_AK6v98bQz-7">
          <mxGeometry relative="1" as="geometry">
            <mxPoint x="613" y="434" as="targetPoint" />
            <mxPoint x="380" y="275" as="sourcePoint" />
          </mxGeometry>
        </mxCell>
        <mxCell id="9sCy_fKsVC_AK6v98bQz-21" value="&lt;span style=&quot;color: rgba(0, 0, 0, 0); font-family: monospace; font-size: 0px; text-align: start; background-color: rgb(251, 251, 251);&quot;&gt;%3CmxGraphModel%3E%3Croot%3E%3CmxCell%20id%3D%220%22%2F%3E%3CmxCell%20id%3D%221%22%20parent%3D%220%22%2F%3E%3CmxCell%20id%3D%222%22%20style%3D%22edgeStyle%3DorthogonalEdgeStyle%3Brounded%3D0%3BorthogonalLoop%3D1%3BjettySize%3Dauto%3Bhtml%3D1%3BexitX%3D1%3BexitY%3D0.75%3BexitDx%3D0%3BexitDy%3D0%3BentryX%3D0.145%3BentryY%3D0%3BentryDx%3D0%3BentryDy%3D4.35%3BentryPerimeter%3D0%3B%22%20edge%3D%221%22%20parent%3D%221%22%3E%3CmxGeometry%20relative%3D%221%22%20as%3D%22geometry%22%3E%3CmxPoint%20x%3D%22603%22%20y%3D%22424%22%20as%3D%22targetPoint%22%2F%3E%3CmxPoint%20x%3D%22370%22%20y%3D%22265%22%20as%3D%22sourcePoint%22%2F%3E%3C%2FmxGeometry%3E%3C%2FmxCell%3E%3CmxCell%20id%3D%223%22%20value%3D%22Draft_ValidOutputDetail%22%20style%3D%22edgeLabel%3Bhtml%3D1%3Balign%3Dcenter%3BverticalAlign%3Dmiddle%3Bresizable%3D0%3Bpoints%3D%5B%5D%3B%22%20vertex%3D%221%22%20connectable%3D%220%22%20parent%3D%222%22%3E%3CmxGeometry%20x%3D%220.2738%22%20y%3D%222%22%20relative%3D%221%22%20as%3D%22geometry%22%3E%3CmxPoint%20as%3D%22offset%22%2F%3E%3C%2FmxGeometry%3E%3C%2FmxCell%3E%3C%2Froot%3E%3C%2FmxGraphModel%3E&lt;/span&gt;" style="edgeLabel;html=1;align=center;verticalAlign=middle;resizable=0;points=[];" vertex="1" connectable="0" parent="9sCy_fKsVC_AK6v98bQz-20">
          <mxGeometry x="-0.3474" y="-1" relative="1" as="geometry">
            <mxPoint as="offset" />
          </mxGeometry>
        </mxCell>
        <mxCell id="9sCy_fKsVC_AK6v98bQz-22" value="Draft_by_TypeOriginProperty" style="edgeLabel;html=1;align=center;verticalAlign=middle;resizable=0;points=[];" vertex="1" connectable="0" parent="9sCy_fKsVC_AK6v98bQz-20">
          <mxGeometry x="-0.4189" relative="1" as="geometry">
            <mxPoint as="offset" />
          </mxGeometry>
        </mxCell>
        <mxCell id="9sCy_fKsVC_AK6v98bQz-23" style="edgeStyle=orthogonalEdgeStyle;rounded=0;orthogonalLoop=1;jettySize=auto;html=1;entryX=0.844;entryY=-0.017;entryDx=0;entryDy=0;entryPerimeter=0;exitX=0.567;exitY=0;exitDx=0;exitDy=0;exitPerimeter=0;" edge="1" parent="1" source="9sCy_fKsVC_AK6v98bQz-6" target="9sCy_fKsVC_AK6v98bQz-7">
          <mxGeometry relative="1" as="geometry">
            <mxPoint x="670" y="430" as="targetPoint" />
            <mxPoint x="320" y="210" as="sourcePoint" />
          </mxGeometry>
        </mxCell>
        <mxCell id="9sCy_fKsVC_AK6v98bQz-24" value="&lt;span style=&quot;color: rgba(0, 0, 0, 0); font-family: monospace; font-size: 0px; text-align: start; background-color: rgb(251, 251, 251);&quot;&gt;%3CmxGraphModel%3E%3Croot%3E%3CmxCell%20id%3D%220%22%2F%3E%3CmxCell%20id%3D%221%22%20parent%3D%220%22%2F%3E%3CmxCell%20id%3D%222%22%20style%3D%22edgeStyle%3DorthogonalEdgeStyle%3Brounded%3D0%3BorthogonalLoop%3D1%3BjettySize%3Dauto%3Bhtml%3D1%3BexitX%3D1%3BexitY%3D0.75%3BexitDx%3D0%3BexitDy%3D0%3BentryX%3D0.145%3BentryY%3D0%3BentryDx%3D0%3BentryDy%3D4.35%3BentryPerimeter%3D0%3B%22%20edge%3D%221%22%20parent%3D%221%22%3E%3CmxGeometry%20relative%3D%221%22%20as%3D%22geometry%22%3E%3CmxPoint%20x%3D%22603%22%20y%3D%22424%22%20as%3D%22targetPoint%22%2F%3E%3CmxPoint%20x%3D%22370%22%20y%3D%22265%22%20as%3D%22sourcePoint%22%2F%3E%3C%2FmxGeometry%3E%3C%2FmxCell%3E%3CmxCell%20id%3D%223%22%20value%3D%22Draft_ValidOutputDetail%22%20style%3D%22edgeLabel%3Bhtml%3D1%3Balign%3Dcenter%3BverticalAlign%3Dmiddle%3Bresizable%3D0%3Bpoints%3D%5B%5D%3B%22%20vertex%3D%221%22%20connectable%3D%220%22%20parent%3D%222%22%3E%3CmxGeometry%20x%3D%220.2738%22%20y%3D%222%22%20relative%3D%221%22%20as%3D%22geometry%22%3E%3CmxPoint%20as%3D%22offset%22%2F%3E%3C%2FmxGeometry%3E%3C%2FmxCell%3E%3C%2Froot%3E%3C%2FmxGraphModel%3E&lt;/span&gt;" style="edgeLabel;html=1;align=center;verticalAlign=middle;resizable=0;points=[];" vertex="1" connectable="0" parent="9sCy_fKsVC_AK6v98bQz-23">
          <mxGeometry x="-0.3474" y="-1" relative="1" as="geometry">
            <mxPoint as="offset" />
          </mxGeometry>
        </mxCell>
        <mxCell id="9sCy_fKsVC_AK6v98bQz-25" value="Draft_by_TypeProperty" style="edgeLabel;html=1;align=center;verticalAlign=middle;resizable=0;points=[];" vertex="1" connectable="0" parent="9sCy_fKsVC_AK6v98bQz-23">
          <mxGeometry x="-0.4189" relative="1" as="geometry">
            <mxPoint as="offset" />
          </mxGeometry>
        </mxCell>
        <mxCell id="9sCy_fKsVC_AK6v98bQz-26" value="SharePoint&lt;div&gt;&lt;br&gt;&lt;/div&gt;" style="shape=document;whiteSpace=wrap;html=1;boundedLbl=1;" vertex="1" parent="1">
          <mxGeometry x="40" y="660" width="120" height="80" as="geometry" />
        </mxCell>
        <mxCell id="9sCy_fKsVC_AK6v98bQz-27" style="edgeStyle=orthogonalEdgeStyle;rounded=0;orthogonalLoop=1;jettySize=auto;html=1;exitX=1;exitY=0.25;exitDx=0;exitDy=0;entryX=0.5;entryY=1;entryDx=0;entryDy=0;entryPerimeter=0;" edge="1" parent="1" source="9sCy_fKsVC_AK6v98bQz-26" target="9sCy_fKsVC_AK6v98bQz-7">
          <mxGeometry relative="1" as="geometry">
            <mxPoint x="590" y="473" as="targetPoint" />
            <mxPoint x="290" y="290" as="sourcePoint" />
          </mxGeometry>
        </mxCell>
        <mxCell id="9sCy_fKsVC_AK6v98bQz-28" value="InfeasibleInput" style="edgeLabel;html=1;align=center;verticalAlign=middle;resizable=0;points=[];" vertex="1" connectable="0" parent="9sCy_fKsVC_AK6v98bQz-27">
          <mxGeometry x="0.2738" y="2" relative="1" as="geometry">
            <mxPoint as="offset" />
          </mxGeometry>
        </mxCell>
        <mxCell id="9sCy_fKsVC_AK6v98bQz-29" value="" style="swimlane;startSize=0;" vertex="1" parent="1">
          <mxGeometry x="320" y="300" width="200" height="200" as="geometry" />
        </mxCell>
        <mxCell id="9sCy_fKsVC_AK6v98bQz-30" value="Validation" style="shape=parallelogram;perimeter=parallelogramPerimeter;whiteSpace=wrap;html=1;fixedSize=1;" vertex="1" parent="1">
          <mxGeometry x="425" y="30" width="120" height="60" as="geometry" />
        </mxCell>
        <mxCell id="9sCy_fKsVC_AK6v98bQz-31" style="edgeStyle=orthogonalEdgeStyle;rounded=0;orthogonalLoop=1;jettySize=auto;html=1;entryX=0.067;entryY=0.283;entryDx=0;entryDy=0;entryPerimeter=0;exitX=0.175;exitY=0.033;exitDx=0;exitDy=0;exitPerimeter=0;" edge="1" parent="1" source="9sCy_fKsVC_AK6v98bQz-6" target="9sCy_fKsVC_AK6v98bQz-30">
          <mxGeometry relative="1" as="geometry">
            <mxPoint x="725" y="427" as="targetPoint" />
            <mxPoint x="328" y="230" as="sourcePoint" />
            <Array as="points">
              <mxPoint x="271" y="217" />
              <mxPoint x="270" y="217" />
              <mxPoint x="270" y="47" />
            </Array>
          </mxGeometry>
        </mxCell>
        <mxCell id="9sCy_fKsVC_AK6v98bQz-32" value="&lt;span style=&quot;color: rgba(0, 0, 0, 0); font-family: monospace; font-size: 0px; text-align: start; background-color: rgb(251, 251, 251);&quot;&gt;%3CmxGraphModel%3E%3Croot%3E%3CmxCell%20id%3D%220%22%2F%3E%3CmxCell%20id%3D%221%22%20parent%3D%220%22%2F%3E%3CmxCell%20id%3D%222%22%20style%3D%22edgeStyle%3DorthogonalEdgeStyle%3Brounded%3D0%3BorthogonalLoop%3D1%3BjettySize%3Dauto%3Bhtml%3D1%3BexitX%3D1%3BexitY%3D0.75%3BexitDx%3D0%3BexitDy%3D0%3BentryX%3D0.145%3BentryY%3D0%3BentryDx%3D0%3BentryDy%3D4.35%3BentryPerimeter%3D0%3B%22%20edge%3D%221%22%20parent%3D%221%22%3E%3CmxGeometry%20relative%3D%221%22%20as%3D%22geometry%22%3E%3CmxPoint%20x%3D%22603%22%20y%3D%22424%22%20as%3D%22targetPoint%22%2F%3E%3CmxPoint%20x%3D%22370%22%20y%3D%22265%22%20as%3D%22sourcePoint%22%2F%3E%3C%2FmxGeometry%3E%3C%2FmxCell%3E%3CmxCell%20id%3D%223%22%20value%3D%22Draft_ValidOutputDetail%22%20style%3D%22edgeLabel%3Bhtml%3D1%3Balign%3Dcenter%3BverticalAlign%3Dmiddle%3Bresizable%3D0%3Bpoints%3D%5B%5D%3B%22%20vertex%3D%221%22%20connectable%3D%220%22%20parent%3D%222%22%3E%3CmxGeometry%20x%3D%220.2738%22%20y%3D%222%22%20relative%3D%221%22%20as%3D%22geometry%22%3E%3CmxPoint%20as%3D%22offset%22%2F%3E%3C%2FmxGeometry%3E%3C%2FmxCell%3E%3C%2Froot%3E%3C%2FmxGraphModel%3E&lt;/span&gt;" style="edgeLabel;html=1;align=center;verticalAlign=middle;resizable=0;points=[];" vertex="1" connectable="0" parent="9sCy_fKsVC_AK6v98bQz-31">
          <mxGeometry x="-0.3474" y="-1" relative="1" as="geometry">
            <mxPoint as="offset" />
          </mxGeometry>
        </mxCell>
        <mxCell id="9sCy_fKsVC_AK6v98bQz-33" value="Draft_by_TypeProperty" style="edgeLabel;html=1;align=center;verticalAlign=middle;resizable=0;points=[];" vertex="1" connectable="0" parent="9sCy_fKsVC_AK6v98bQz-31">
          <mxGeometry x="-0.4189" relative="1" as="geometry">
            <mxPoint as="offset" />
          </mxGeometry>
        </mxCell>
        <mxCell id="9sCy_fKsVC_AK6v98bQz-34" style="edgeStyle=orthogonalEdgeStyle;rounded=0;orthogonalLoop=1;jettySize=auto;html=1;exitX=0.5;exitY=0;exitDx=0;exitDy=0;entryX=0.017;entryY=0.583;entryDx=0;entryDy=0;entryPerimeter=0;" edge="1" parent="1" source="9sCy_fKsVC_AK6v98bQz-6" target="9sCy_fKsVC_AK6v98bQz-30">
          <mxGeometry relative="1" as="geometry">
            <mxPoint x="670" y="430" as="targetPoint" />
            <mxPoint x="380" y="245" as="sourcePoint" />
            <Array as="points">
              <mxPoint x="310" y="65" />
            </Array>
          </mxGeometry>
        </mxCell>
        <mxCell id="9sCy_fKsVC_AK6v98bQz-35" value="&lt;span style=&quot;color: rgba(0, 0, 0, 0); font-family: monospace; font-size: 0px; text-align: start; background-color: rgb(251, 251, 251);&quot;&gt;%3CmxGraphModel%3E%3Croot%3E%3CmxCell%20id%3D%220%22%2F%3E%3CmxCell%20id%3D%221%22%20parent%3D%220%22%2F%3E%3CmxCell%20id%3D%222%22%20style%3D%22edgeStyle%3DorthogonalEdgeStyle%3Brounded%3D0%3BorthogonalLoop%3D1%3BjettySize%3Dauto%3Bhtml%3D1%3BexitX%3D1%3BexitY%3D0.75%3BexitDx%3D0%3BexitDy%3D0%3BentryX%3D0.145%3BentryY%3D0%3BentryDx%3D0%3BentryDy%3D4.35%3BentryPerimeter%3D0%3B%22%20edge%3D%221%22%20parent%3D%221%22%3E%3CmxGeometry%20relative%3D%221%22%20as%3D%22geometry%22%3E%3CmxPoint%20x%3D%22603%22%20y%3D%22424%22%20as%3D%22targetPoint%22%2F%3E%3CmxPoint%20x%3D%22370%22%20y%3D%22265%22%20as%3D%22sourcePoint%22%2F%3E%3C%2FmxGeometry%3E%3C%2FmxCell%3E%3CmxCell%20id%3D%223%22%20value%3D%22Draft_ValidOutputDetail%22%20style%3D%22edgeLabel%3Bhtml%3D1%3Balign%3Dcenter%3BverticalAlign%3Dmiddle%3Bresizable%3D0%3Bpoints%3D%5B%5D%3B%22%20vertex%3D%221%22%20connectable%3D%220%22%20parent%3D%222%22%3E%3CmxGeometry%20x%3D%220.2738%22%20y%3D%222%22%20relative%3D%221%22%20as%3D%22geometry%22%3E%3CmxPoint%20as%3D%22offset%22%2F%3E%3C%2FmxGeometry%3E%3C%2FmxCell%3E%3C%2Froot%3E%3C%2FmxGraphModel%3E&lt;/span&gt;" style="edgeLabel;html=1;align=center;verticalAlign=middle;resizable=0;points=[];" vertex="1" connectable="0" parent="9sCy_fKsVC_AK6v98bQz-34">
          <mxGeometry x="-0.3474" y="-1" relative="1" as="geometry">
            <mxPoint as="offset" />
          </mxGeometry>
        </mxCell>
        <mxCell id="9sCy_fKsVC_AK6v98bQz-36" value="Draft_by_TypeOriginProperty" style="edgeLabel;html=1;align=center;verticalAlign=middle;resizable=0;points=[];" vertex="1" connectable="0" parent="9sCy_fKsVC_AK6v98bQz-34">
          <mxGeometry x="-0.4189" relative="1" as="geometry">
            <mxPoint as="offset" />
          </mxGeometry>
        </mxCell>
        <mxCell id="9sCy_fKsVC_AK6v98bQz-37" style="edgeStyle=orthogonalEdgeStyle;rounded=0;orthogonalLoop=1;jettySize=auto;html=1;entryX=1;entryY=0;entryDx=0;entryDy=52.5;entryPerimeter=0;exitX=1;exitY=0.25;exitDx=0;exitDy=0;" edge="1" parent="1" source="9sCy_fKsVC_AK6v98bQz-30" target="9sCy_fKsVC_AK6v98bQz-7">
          <mxGeometry relative="1" as="geometry">
            <mxPoint x="725" y="427" as="targetPoint" />
            <mxPoint x="328" y="230" as="sourcePoint" />
          </mxGeometry>
        </mxCell>
        <mxCell id="9sCy_fKsVC_AK6v98bQz-38" value="&lt;span style=&quot;color: rgba(0, 0, 0, 0); font-family: monospace; font-size: 0px; text-align: start; background-color: rgb(251, 251, 251);&quot;&gt;%3CmxGraphModel%3E%3Croot%3E%3CmxCell%20id%3D%220%22%2F%3E%3CmxCell%20id%3D%221%22%20parent%3D%220%22%2F%3E%3CmxCell%20id%3D%222%22%20style%3D%22edgeStyle%3DorthogonalEdgeStyle%3Brounded%3D0%3BorthogonalLoop%3D1%3BjettySize%3Dauto%3Bhtml%3D1%3BexitX%3D1%3BexitY%3D0.75%3BexitDx%3D0%3BexitDy%3D0%3BentryX%3D0.145%3BentryY%3D0%3BentryDx%3D0%3BentryDy%3D4.35%3BentryPerimeter%3D0%3B%22%20edge%3D%221%22%20parent%3D%221%22%3E%3CmxGeometry%20relative%3D%221%22%20as%3D%22geometry%22%3E%3CmxPoint%20x%3D%22603%22%20y%3D%22424%22%20as%3D%22targetPoint%22%2F%3E%3CmxPoint%20x%3D%22370%22%20y%3D%22265%22%20as%3D%22sourcePoint%22%2F%3E%3C%2FmxGeometry%3E%3C%2FmxCell%3E%3CmxCell%20id%3D%223%22%20value%3D%22Draft_ValidOutputDetail%22%20style%3D%22edgeLabel%3Bhtml%3D1%3Balign%3Dcenter%3BverticalAlign%3Dmiddle%3Bresizable%3D0%3Bpoints%3D%5B%5D%3B%22%20vertex%3D%221%22%20connectable%3D%220%22%20parent%3D%222%22%3E%3CmxGeometry%20x%3D%220.2738%22%20y%3D%222%22%20relative%3D%221%22%20as%3D%22geometry%22%3E%3CmxPoint%20as%3D%22offset%22%2F%3E%3C%2FmxGeometry%3E%3C%2FmxCell%3E%3C%2Froot%3E%3C%2FmxGraphModel%3E&lt;/span&gt;" style="edgeLabel;html=1;align=center;verticalAlign=middle;resizable=0;points=[];" vertex="1" connectable="0" parent="9sCy_fKsVC_AK6v98bQz-37">
          <mxGeometry x="-0.3474" y="-1" relative="1" as="geometry">
            <mxPoint as="offset" />
          </mxGeometry>
        </mxCell>
        <mxCell id="9sCy_fKsVC_AK6v98bQz-39" value="Published_by_TypeProperty" style="edgeLabel;html=1;align=center;verticalAlign=middle;resizable=0;points=[];" vertex="1" connectable="0" parent="9sCy_fKsVC_AK6v98bQz-37">
          <mxGeometry x="-0.4189" relative="1" as="geometry">
            <mxPoint as="offset" />
          </mxGeometry>
        </mxCell>
        <mxCell id="9sCy_fKsVC_AK6v98bQz-40" style="edgeStyle=orthogonalEdgeStyle;rounded=0;orthogonalLoop=1;jettySize=auto;html=1;entryX=1;entryY=0;entryDx=0;entryDy=127.5;entryPerimeter=0;exitX=1;exitY=0.75;exitDx=0;exitDy=0;" edge="1" parent="1" source="9sCy_fKsVC_AK6v98bQz-30" target="9sCy_fKsVC_AK6v98bQz-7">
          <mxGeometry relative="1" as="geometry">
            <mxPoint x="750" y="483" as="targetPoint" />
            <mxPoint x="550" y="56" as="sourcePoint" />
          </mxGeometry>
        </mxCell>
        <mxCell id="9sCy_fKsVC_AK6v98bQz-41" value="&lt;span style=&quot;color: rgba(0, 0, 0, 0); font-family: monospace; font-size: 0px; text-align: start; background-color: rgb(251, 251, 251);&quot;&gt;%3CmxGraphModel%3E%3Croot%3E%3CmxCell%20id%3D%220%22%2F%3E%3CmxCell%20id%3D%221%22%20parent%3D%220%22%2F%3E%3CmxCell%20id%3D%222%22%20style%3D%22edgeStyle%3DorthogonalEdgeStyle%3Brounded%3D0%3BorthogonalLoop%3D1%3BjettySize%3Dauto%3Bhtml%3D1%3BexitX%3D1%3BexitY%3D0.75%3BexitDx%3D0%3BexitDy%3D0%3BentryX%3D0.145%3BentryY%3D0%3BentryDx%3D0%3BentryDy%3D4.35%3BentryPerimeter%3D0%3B%22%20edge%3D%221%22%20parent%3D%221%22%3E%3CmxGeometry%20relative%3D%221%22%20as%3D%22geometry%22%3E%3CmxPoint%20x%3D%22603%22%20y%3D%22424%22%20as%3D%22targetPoint%22%2F%3E%3CmxPoint%20x%3D%22370%22%20y%3D%22265%22%20as%3D%22sourcePoint%22%2F%3E%3C%2FmxGeometry%3E%3C%2FmxCell%3E%3CmxCell%20id%3D%223%22%20value%3D%22Draft_ValidOutputDetail%22%20style%3D%22edgeLabel%3Bhtml%3D1%3Balign%3Dcenter%3BverticalAlign%3Dmiddle%3Bresizable%3D0%3Bpoints%3D%5B%5D%3B%22%20vertex%3D%221%22%20connectable%3D%220%22%20parent%3D%222%22%3E%3CmxGeometry%20x%3D%220.2738%22%20y%3D%222%22%20relative%3D%221%22%20as%3D%22geometry%22%3E%3CmxPoint%20as%3D%22offset%22%2F%3E%3C%2FmxGeometry%3E%3C%2FmxCell%3E%3C%2Froot%3E%3C%2FmxGraphModel%3E&lt;/span&gt;" style="edgeLabel;html=1;align=center;verticalAlign=middle;resizable=0;points=[];" vertex="1" connectable="0" parent="9sCy_fKsVC_AK6v98bQz-40">
          <mxGeometry x="-0.3474" y="-1" relative="1" as="geometry">
            <mxPoint as="offset" />
          </mxGeometry>
        </mxCell>
        <mxCell id="9sCy_fKsVC_AK6v98bQz-42" value="Published_by_TypeOriginProperty" style="edgeLabel;html=1;align=center;verticalAlign=middle;resizable=0;points=[];" vertex="1" connectable="0" parent="9sCy_fKsVC_AK6v98bQz-40">
          <mxGeometry x="-0.4189" relative="1" as="geometry">
            <mxPoint as="offset" />
          </mxGeometry>
        </mxCell>
      </root>
    </mxGraphModel>
  </diagram>
</mxfile>
